<?xml version="1.0" encoding="UTF-8" standalone="no"?>
<!DOCTYPE svg PUBLIC "-//W3C//DTD SVG 1.1//EN"
 "http://www.w3.org/Graphics/SVG/1.1/DTD/svg11.dtd">
<!-- Generated by graphviz version 2.43.0 (0)
 -->
<!-- Title: UseCaseDiagram Pages: 1 -->
<svg width="826pt" height="1071pt"
 viewBox="0.00 0.00 826.25 1071.02" xmlns="http://www.w3.org/2000/svg" xmlns:xlink="http://www.w3.org/1999/xlink">
<g id="graph0" class="graph" transform="scale(1 1) rotate(0) translate(4 1067.02)">
<title>UseCaseDiagram</title>
<polygon fill="white" stroke="transparent" points="-4,4 -4,-1067.02 822.25,-1067.02 822.25,4 -4,4"/>
<g id="clust3" class="cluster">
<title>cluster_system</title>
<polygon fill="white" stroke="#5f5e5a" points="136,-170 136,-996 810.25,-996 810.25,-170 136,-170"/>
<text text-anchor="middle" x="358" y="-980.8" font-family="Helvetica,sans-Serif" font-weight="bold" font-size="14.00">Komfort Tours &amp; Travel u2013 Online Booking Platform</text>
</g>
<!-- Traveler -->
<g id="node1" class="node">
<title>Traveler</title>
<image xlink:href="/home/claude/uc/user.png" width="77.1429px" height="108px" preserveAspectRatio="xMinYMin meet" x="0.928571" y="-901"/>
<text text-anchor="middle" x="39.5" y="-808.2" font-family="Helvetica,sans-Serif" font-size="11.00">Traveler /</text>
<text text-anchor="middle" x="39.5" y="-796.2" font-family="Helvetica,sans-Serif" font-size="11.00">Guest</text>
</g>
<!-- UC_Login -->
<g id="node4" class="node">
<title>UC_Login</title>
<ellipse fill="#e6f1fb" stroke="#185fa5" cx="677.35" cy="-723" rx="61.88" ry="18"/>
<text text-anchor="middle" x="677.35" y="-720.2" font-family="Helvetica,sans-Serif" font-size="11.00">Register / Login</text>
</g>
<!-- Traveler&#45;&gt;UC_Login -->
<g id="edge1" class="edge">
<title>Traveler&#45;&gt;UC_Login</title>
<path fill="none" stroke="#5f5e5a" d="M71.01,-901.22C87.09,-924.16 109.1,-948.44 136,-961 252.17,-1015.23 300.74,-994.61 424.46,-961 539.17,-929.84 626.85,-805.02 660.9,-749.67"/>
<polygon fill="#5f5e5a" stroke="#5f5e5a" points="664.09,-751.16 666.27,-740.79 658.1,-747.54 664.09,-751.16"/>
</g>
<!-- UC_Browse -->
<g id="node5" class="node">
<title>UC_Browse</title>
<ellipse fill="#e6f1fb" stroke="#185fa5" cx="292.23" cy="-926" rx="91.85" ry="22.76"/>
<text text-anchor="middle" x="292.23" y="-929.2" font-family="Helvetica,sans-Serif" font-size="11.00">Browse Destinations</text>
<text text-anchor="middle" x="292.23" y="-917.2" font-family="Helvetica,sans-Serif" font-size="11.00">&amp; Travel Categories</text>
</g>
<!-- Traveler&#45;&gt;UC_Browse -->
<g id="edge2" class="edge">
<title>Traveler&#45;&gt;UC_Browse</title>
<path fill="none" stroke="#5f5e5a" d="M79.24,-867.1C96.31,-875.36 116.81,-884.5 136,-891 158.89,-898.76 184.27,-905.3 207.76,-910.56"/>
<polygon fill="#5f5e5a" stroke="#5f5e5a" points="207.18,-914.01 217.7,-912.73 208.68,-907.17 207.18,-914.01"/>
</g>
<!-- UC_Book -->
<g id="node6" class="node">
<title>UC_Book</title>
<ellipse fill="#e6f1fb" stroke="#185fa5" cx="292.23" cy="-760" rx="124.4" ry="31.23"/>
<text text-anchor="middle" x="292.23" y="-769.2" font-family="Helvetica,sans-Serif" font-size="11.00">Book Trip</text>
<text text-anchor="middle" x="292.23" y="-757.2" font-family="Helvetica,sans-Serif" font-size="11.00">(Retreat, Road Trip, Transfer,</text>
<text text-anchor="middle" x="292.23" y="-745.2" font-family="Helvetica,sans-Serif" font-size="11.00">Event, Corporate &amp; MICE)</text>
</g>
<!-- Traveler&#45;&gt;UC_Book -->
<g id="edge3" class="edge">
<title>Traveler&#45;&gt;UC_Book</title>
<path fill="none" stroke="#5f5e5a" d="M79.39,-827.35C96.49,-819.16 116.97,-809.97 136,-803 154.31,-796.3 174.16,-790.05 193.35,-784.52"/>
<polygon fill="#5f5e5a" stroke="#5f5e5a" points="194.35,-787.88 203.01,-781.78 192.44,-781.14 194.35,-787.88"/>
</g>
<!-- UC_Cancel -->
<g id="node8" class="node">
<title>UC_Cancel</title>
<ellipse fill="#e6f1fb" stroke="#185fa5" cx="292.23" cy="-686" rx="60.97" ry="18"/>
<text text-anchor="middle" x="292.23" y="-683.2" font-family="Helvetica,sans-Serif" font-size="11.00">Cancel Booking</text>
</g>
<!-- Traveler&#45;&gt;UC_Cancel -->
<g id="edge4" class="edge">
<title>Traveler&#45;&gt;UC_Cancel</title>
<path fill="none" stroke="#5f5e5a" d="M67.38,-792.69C83.59,-765.53 106.78,-734.56 136,-716 161.17,-700.01 192.94,-692.19 221.17,-688.48"/>
<polygon fill="#5f5e5a" stroke="#5f5e5a" points="221.87,-691.93 231.4,-687.3 221.06,-684.97 221.87,-691.93"/>
</g>
<!-- UC_Itinerary -->
<g id="node9" class="node">
<title>UC_Itinerary</title>
<ellipse fill="#e6f1fb" stroke="#185fa5" cx="677.35" cy="-910" rx="55.85" ry="18"/>
<text text-anchor="middle" x="677.35" y="-907.2" font-family="Helvetica,sans-Serif" font-size="11.00">View Itinerary</text>
</g>
<!-- Traveler&#45;&gt;UC_Itinerary -->
<g id="edge5" class="edge">
<title>Traveler&#45;&gt;UC_Itinerary</title>
<path fill="none" stroke="#5f5e5a" d="M51.7,-901.34C62.35,-937.83 82.39,-983.25 119,-1006 273.56,-1102.06 353.97,-1057.67 528.46,-1006 576.01,-991.92 622.61,-957.21 650.41,-933.63"/>
<polygon fill="#5f5e5a" stroke="#5f5e5a" points="652.8,-936.18 658.08,-927 648.23,-930.89 652.8,-936.18"/>
</g>
<!-- UC_Map -->
<g id="node10" class="node">
<title>UC_Map</title>
<ellipse fill="#e6f1fb" stroke="#185fa5" cx="292.23" cy="-847" rx="110.12" ry="31.23"/>
<text text-anchor="middle" x="292.23" y="-856.2" font-family="Helvetica,sans-Serif" font-size="11.00">View Route Map</text>
<text text-anchor="middle" x="292.23" y="-844.2" font-family="Helvetica,sans-Serif" font-size="11.00">(Start u2192 Destination,</text>
<text text-anchor="middle" x="292.23" y="-832.2" font-family="Helvetica,sans-Serif" font-size="11.00">Landmarks &amp; Buildings)</text>
</g>
<!-- Traveler&#45;&gt;UC_Map -->
<g id="edge6" class="edge">
<title>Traveler&#45;&gt;UC_Map</title>
<path fill="none" stroke="#5f5e5a" d="M79.13,-847C104.09,-847 138.04,-847 171.47,-847"/>
<polygon fill="#5f5e5a" stroke="#5f5e5a" points="171.81,-850.5 181.81,-847 171.81,-843.5 171.81,-850.5"/>
</g>
<!-- UC_History -->
<g id="node11" class="node">
<title>UC_History</title>
<ellipse fill="#e6f1fb" stroke="#185fa5" cx="292.23" cy="-620" rx="94.51" ry="22.76"/>
<text text-anchor="middle" x="292.23" y="-623.2" font-family="Helvetica,sans-Serif" font-size="11.00">View Booking History</text>
<text text-anchor="middle" x="292.23" y="-611.2" font-family="Helvetica,sans-Serif" font-size="11.00">/ Profile</text>
</g>
<!-- Traveler&#45;&gt;UC_History -->
<g id="edge7" class="edge">
<title>Traveler&#45;&gt;UC_History</title>
<path fill="none" stroke="#5f5e5a" d="M53.87,-792.71C67.38,-749.29 92.62,-690.2 136,-656 152.15,-643.27 172.01,-634.9 192.06,-629.42"/>
<polygon fill="#5f5e5a" stroke="#5f5e5a" points="193.05,-632.78 201.91,-626.96 191.36,-625.99 193.05,-632.78"/>
</g>
<!-- Admin -->
<g id="node2" class="node">
<title>Admin</title>
<image xlink:href="/home/claude/uc/admin.png" width="77.1429px" height="108px" preserveAspectRatio="xMinYMin meet" x="0.928571" y="-341"/>
<text text-anchor="middle" x="39.5" y="-236.2" font-family="Helvetica,sans-Serif" font-size="11.00">Admin</text>
</g>
<!-- Admin&#45;&gt;UC_Login -->
<g id="edge8" class="edge">
<title>Admin&#45;&gt;UC_Login</title>
<path fill="none" stroke="#5f5e5a" d="M75.17,-232.81C91.05,-212.94 111.77,-192.71 136,-182 297.26,-110.69 419.07,-101.71 528.46,-240 568.87,-291.09 549.77,-318.6 568.46,-381 603.59,-498.31 648.43,-637.25 667.32,-695.33"/>
<polygon fill="#5f5e5a" stroke="#5f5e5a" points="664.01,-696.46 670.43,-704.89 670.67,-694.3 664.01,-696.46"/>
</g>
<!-- UC_Destinations -->
<g id="node12" class="node">
<title>UC_Destinations</title>
<ellipse fill="#faece7" stroke="#993c1d" cx="292.23" cy="-427" rx="108.79" ry="22.76"/>
<text text-anchor="middle" x="292.23" y="-430.2" font-family="Helvetica,sans-Serif" font-size="11.00">Manage Destinations</text>
<text text-anchor="middle" x="292.23" y="-418.2" font-family="Helvetica,sans-Serif" font-size="11.00">(Add / Update / Remove)</text>
</g>
<!-- Admin&#45;&gt;UC_Destinations -->
<g id="edge9" class="edge">
<title>Admin&#45;&gt;UC_Destinations</title>
<path fill="none" stroke="#5f5e5a" d="M78.56,-341C94.32,-359.74 114.07,-379.23 136,-392 151.89,-401.25 170,-408.06 188.11,-413.06"/>
<polygon fill="#5f5e5a" stroke="#5f5e5a" points="187.31,-416.47 197.87,-415.59 189.06,-409.69 187.31,-416.47"/>
</g>
<!-- UC_Vehicles -->
<g id="node13" class="node">
<title>UC_Vehicles</title>
<ellipse fill="#faece7" stroke="#993c1d" cx="677.35" cy="-218" rx="108.79" ry="22.76"/>
<text text-anchor="middle" x="677.35" y="-221.2" font-family="Helvetica,sans-Serif" font-size="11.00">Manage Vehicles</text>
<text text-anchor="middle" x="677.35" y="-209.2" font-family="Helvetica,sans-Serif" font-size="11.00">(Add / Update / Remove)</text>
</g>
<!-- Admin&#45;&gt;UC_Vehicles -->
<g id="edge10" class="edge">
<title>Admin&#45;&gt;UC_Vehicles</title>
<path fill="none" stroke="#5f5e5a" d="M52.31,-232.88C65.09,-187.72 90.11,-125.39 136,-91 254.5,-2.19 316.9,-47.49 464.46,-35 492.8,-32.6 502.79,-22.74 528.46,-35 594.22,-66.41 640.15,-142.92 661.95,-186.41"/>
<polygon fill="#5f5e5a" stroke="#5f5e5a" points="658.82,-187.98 666.36,-195.42 665.11,-184.9 658.82,-187.98"/>
</g>
<!-- UC_HireVehicle -->
<g id="node14" class="node">
<title>UC_HireVehicle</title>
<ellipse fill="#faece7" stroke="#993c1d" cx="292.23" cy="-287" rx="111.95" ry="22.76"/>
<text text-anchor="middle" x="292.23" y="-290.2" font-family="Helvetica,sans-Serif" font-size="11.00">Hire Vehicle</text>
<text text-anchor="middle" x="292.23" y="-278.2" font-family="Helvetica,sans-Serif" font-size="11.00">(Onboard Vendor Vehicle)</text>
</g>
<!-- Admin&#45;&gt;UC_HireVehicle -->
<g id="edge11" class="edge">
<title>Admin&#45;&gt;UC_HireVehicle</title>
<path fill="none" stroke="#5f5e5a" d="M79.13,-287C103.78,-287 137.2,-287 170.22,-287"/>
<polygon fill="#5f5e5a" stroke="#5f5e5a" points="170.44,-290.5 180.44,-287 170.44,-283.5 170.44,-290.5"/>
</g>
<!-- UC_Assign -->
<g id="node15" class="node">
<title>UC_Assign</title>
<ellipse fill="#faece7" stroke="#993c1d" cx="292.23" cy="-357" rx="67.35" ry="22.76"/>
<text text-anchor="middle" x="292.23" y="-360.2" font-family="Helvetica,sans-Serif" font-size="11.00">Assign Vehicle</text>
<text text-anchor="middle" x="292.23" y="-348.2" font-family="Helvetica,sans-Serif" font-size="11.00">to Booking</text>
</g>
<!-- Admin&#45;&gt;UC_Assign -->
<g id="edge12" class="edge">
<title>Admin&#45;&gt;UC_Assign</title>
<path fill="none" stroke="#5f5e5a" d="M79.15,-302.46C96.38,-309.01 117.03,-316.41 136,-322 164.44,-330.38 196.32,-337.88 223.75,-343.78"/>
<polygon fill="#5f5e5a" stroke="#5f5e5a" points="223.13,-347.22 233.64,-345.87 224.58,-340.37 223.13,-347.22"/>
</g>
<!-- UC_Performance -->
<g id="node16" class="node">
<title>UC_Performance</title>
<ellipse fill="#faece7" stroke="#993c1d" cx="292.23" cy="-217" rx="132.46" ry="22.76"/>
<text text-anchor="middle" x="292.23" y="-220.2" font-family="Helvetica,sans-Serif" font-size="11.00">View Vehicle Performance</text>
<text text-anchor="middle" x="292.23" y="-208.2" font-family="Helvetica,sans-Serif" font-size="11.00">(Revenue, Location, Condition)</text>
</g>
<!-- Admin&#45;&gt;UC_Performance -->
<g id="edge13" class="edge">
<title>Admin&#45;&gt;UC_Performance</title>
<path fill="none" stroke="#5f5e5a" d="M79.15,-271.54C96.38,-264.99 117.03,-257.59 136,-252 155.16,-246.36 175.87,-241.11 195.74,-236.48"/>
<polygon fill="#5f5e5a" stroke="#5f5e5a" points="196.76,-239.84 205.72,-234.19 195.19,-233.02 196.76,-239.84"/>
</g>
<!-- UC_Bookings -->
<g id="node17" class="node">
<title>UC_Bookings</title>
<ellipse fill="#faece7" stroke="#993c1d" cx="677.35" cy="-350" rx="67.9" ry="18"/>
<text text-anchor="middle" x="677.35" y="-347.2" font-family="Helvetica,sans-Serif" font-size="11.00">Manage Bookings</text>
</g>
<!-- Admin&#45;&gt;UC_Bookings -->
<g id="edge14" class="edge">
<title>Admin&#45;&gt;UC_Bookings</title>
<path fill="none" stroke="#5f5e5a" d="M53.53,-232.67C64.79,-198.74 84.8,-157.7 119,-137 196.84,-89.88 457.51,-80.02 528.46,-137 592.69,-188.59 512.3,-257.72 568.46,-318 578.1,-328.35 590.93,-335.41 604.36,-340.21"/>
<polygon fill="#5f5e5a" stroke="#5f5e5a" points="603.62,-343.64 614.21,-343.31 605.72,-336.97 603.62,-343.64"/>
</g>
<!-- UC_Users -->
<g id="node18" class="node">
<title>UC_Users</title>
<ellipse fill="#faece7" stroke="#993c1d" cx="292.23" cy="-554" rx="78.55" ry="18"/>
<text text-anchor="middle" x="292.23" y="-551.2" font-family="Helvetica,sans-Serif" font-size="11.00">Manage Users / CRM</text>
</g>
<!-- Admin&#45;&gt;UC_Users -->
<g id="edge15" class="edge">
<title>Admin&#45;&gt;UC_Users</title>
<path fill="none" stroke="#5f5e5a" d="M47.29,-341.16C57.1,-395.78 80.63,-478.36 136,-524 154.81,-539.5 179.25,-547.86 203.15,-552.17"/>
<polygon fill="#5f5e5a" stroke="#5f5e5a" points="202.92,-555.67 213.35,-553.77 204.01,-548.76 202.92,-555.67"/>
</g>
<!-- UC_Reports -->
<g id="node19" class="node">
<title>UC_Reports</title>
<ellipse fill="#faece7" stroke="#993c1d" cx="292.23" cy="-493" rx="68.61" ry="18"/>
<text text-anchor="middle" x="292.23" y="-490.2" font-family="Helvetica,sans-Serif" font-size="11.00">Generate Reports</text>
</g>
<!-- Admin&#45;&gt;UC_Reports -->
<g id="edge16" class="edge">
<title>Admin&#45;&gt;UC_Reports</title>
<path fill="none" stroke="#5f5e5a" d="M56.29,-341.22C70.65,-380.79 95.85,-432.47 136,-462 158.18,-478.32 186.78,-486.61 213.37,-490.66"/>
<polygon fill="#5f5e5a" stroke="#5f5e5a" points="213.07,-494.15 223.45,-492.01 214.01,-487.21 213.07,-494.15"/>
</g>
<!-- Payment -->
<g id="node3" class="node">
<title>Payment</title>
<image xlink:href="/home/claude/uc/payment.png" width="77.1429px" height="108px" preserveAspectRatio="xMinYMin meet" x="0.928571" y="-108"/>
<text text-anchor="middle" x="39.5" y="-15.2" font-family="Helvetica,sans-Serif" font-size="11.00">Payment Gateway</text>
<text text-anchor="middle" x="39.5" y="-3.2" font-family="Helvetica,sans-Serif" font-size="11.00">(M&#45;Pesa / Card)</text>
</g>
<!-- UC_Book&#45;&gt;UC_Login -->
<g id="edge18" class="edge">
<title>UC_Book&#45;&gt;UC_Login</title>
<path fill="none" stroke="#5f5e5a" stroke-dasharray="5,2" d="M408.7,-748.85C473.83,-742.56 552.97,-734.92 608.23,-729.58"/>
<polygon fill="#5f5e5a" stroke="#5f5e5a" points="608.65,-733.05 618.27,-728.61 607.98,-726.09 608.65,-733.05"/>
<text text-anchor="middle" x="496.46" y="-744.8" font-family="Helvetica,sans-Serif" font-size="9.00">&lt;&lt;include&gt;&gt;</text>
</g>
<!-- UC_Pay -->
<g id="node7" class="node">
<title>UC_Pay</title>
<ellipse fill="#e6f1fb" stroke="#185fa5" cx="677.35" cy="-287" rx="58.86" ry="18"/>
<text text-anchor="middle" x="677.35" y="-284.2" font-family="Helvetica,sans-Serif" font-size="11.00">Make Payment</text>
</g>
<!-- UC_Book&#45;&gt;UC_Pay -->
<g id="edge19" class="edge">
<title>UC_Book&#45;&gt;UC_Pay</title>
<path fill="none" stroke="#5f5e5a" stroke-dasharray="5,2" d="M385.52,-739.31C447.17,-724.61 518.72,-705.52 528.46,-694 636.39,-566.35 462.01,-448.9 568.46,-320 579.05,-307.18 594.47,-299.23 610.37,-294.34"/>
<polygon fill="#5f5e5a" stroke="#5f5e5a" points="611.54,-297.65 620.29,-291.67 609.72,-290.89 611.54,-297.65"/>
<text text-anchor="middle" x="496.46" y="-719.8" font-family="Helvetica,sans-Serif" font-size="9.00">&lt;&lt;include&gt;&gt;</text>
</g>
<!-- UC_Pay&#45;&gt;Payment -->
<g id="edge17" class="edge">
<title>UC_Pay&#45;&gt;Payment</title>
<path fill="none" stroke="#5f5e5a" d="M621.8,-280.74C602.65,-275.97 582.45,-267.61 568.46,-253 521.03,-203.48 580.17,-149.03 528.46,-104 398.73,8.97 169.92,-25.21 79.16,-44.66"/>
</g>
<!-- UC_Cancel&#45;&gt;UC_Login -->
<g id="edge20" class="edge">
<title>UC_Cancel&#45;&gt;UC_Login</title>
<path fill="none" stroke="#5f5e5a" stroke-dasharray="5,2" d="M350.54,-680.67C398.34,-677.32 468.13,-674.99 528.46,-683 561.95,-687.45 598.62,-697.33 627.06,-706.16"/>
<polygon fill="#5f5e5a" stroke="#5f5e5a" points="626.17,-709.55 636.76,-709.23 628.28,-702.87 626.17,-709.55"/>
<text text-anchor="middle" x="496.46" y="-685.8" font-family="Helvetica,sans-Serif" font-size="9.00">&lt;&lt;include&gt;&gt;</text>
</g>
<!-- UC_Map&#45;&gt;UC_Itinerary -->
<g id="edge21" class="edge">
<title>UC_Map&#45;&gt;UC_Itinerary</title>
<path fill="none" stroke="#5f5e5a" stroke-dasharray="5,2" d="M397.85,-864.2C472.51,-876.48 569.53,-892.43 627.14,-901.91"/>
<polygon fill="#5f5e5a" stroke="#5f5e5a" points="398.37,-860.74 387.93,-862.57 397.23,-867.65 398.37,-860.74"/>
<text text-anchor="middle" x="496.46" y="-886.8" font-family="Helvetica,sans-Serif" font-size="9.00">&lt;&lt;extend&gt;&gt;</text>
</g>
<!-- UC_HireVehicle&#45;&gt;UC_Vehicles -->
<g id="edge22" class="edge">
<title>UC_HireVehicle&#45;&gt;UC_Vehicles</title>
<path fill="none" stroke="#5f5e5a" stroke-dasharray="5,2" d="M376.36,-272.03C437.67,-260.99 521.08,-245.96 584.39,-234.56"/>
<polygon fill="#5f5e5a" stroke="#5f5e5a" points="585.15,-237.98 594.37,-232.76 583.91,-231.09 585.15,-237.98"/>
<text text-anchor="middle" x="496.46" y="-256.8" font-family="Helvetica,sans-Serif" font-size="9.00">&lt;&lt;include&gt;&gt;</text>
</g>
<!-- UC_Assign&#45;&gt;UC_Bookings -->
<g id="edge23" class="edge">
<title>UC_Assign&#45;&gt;UC_Bookings</title>
<path fill="none" stroke="#5f5e5a" stroke-dasharray="5,2" d="M359.53,-355.79C426.18,-354.57 528.85,-352.7 599.13,-351.41"/>
<polygon fill="#5f5e5a" stroke="#5f5e5a" points="599.33,-354.91 609.26,-351.23 599.2,-347.91 599.33,-354.91"/>
<text text-anchor="middle" x="496.46" y="-355.8" font-family="Helvetica,sans-Serif" font-size="9.00">&lt;&lt;include&gt;&gt;</text>
</g>
</g>
</svg>
